<svg width="15" height="15" viewBox="0 0 15 15" fill="none" xmlns="http://www.w3.org/2000/svg">
<path d="M2.552 14.232C1.8 13.488 1.208 12.536 0.776 11.376C0.344 10.208 0.128 8.94 0.128 7.572C0.128 6.188 0.352 4.904 0.8 3.72C1.248 2.536 1.876 1.56 2.684 0.792H3.56V0.875999C2.704 1.716 2.052 2.72 1.604 3.888C1.164 5.056 0.944 6.284 0.944 7.572C0.944 8.844 1.156 10.048 1.58 11.184C2.004 12.32 2.624 13.308 3.44 14.148V14.232H2.552ZM4.65106 11.34C6.12306 10.236 7.25906 9.248 8.05906 8.376C8.86706 7.496 9.27106 6.636 9.27106 5.796C9.27106 5.244 9.13106 4.804 8.85106 4.476C8.57906 4.14 8.13106 3.972 7.50706 3.972C6.89906 3.972 6.42706 4.164 6.09106 4.548C5.76306 4.924 5.57906 5.428 5.53906 6.06H4.72306C4.77106 5.172 5.04306 4.484 5.53906 3.996C6.04306 3.5 6.69906 3.252 7.50706 3.252C8.28306 3.252 8.91106 3.472 9.39106 3.912C9.87106 4.344 10.1111 4.96 10.1111 5.76C10.1111 6.728 9.70706 7.668 8.89906 8.58C8.09906 9.484 7.11106 10.368 5.93506 11.232H10.3751V11.94H4.65106V11.34ZM11.5063 14.232V14.148C12.3223 13.308 12.9423 12.32 13.3663 11.184C13.7903 10.048 14.0023 8.844 14.0023 7.572C14.0023 6.284 13.7783 5.056 13.3303 3.888C12.8903 2.72 12.2423 1.716 11.3863 0.875999V0.792H12.2623C13.0703 1.56 13.6983 2.536 14.1463 3.72C14.5943 4.904 14.8183 6.188 14.8183 7.572C14.8183 8.94 14.6023 10.208 14.1703 11.376C13.7383 12.536 13.1463 13.488 12.3943 14.232H11.5063Z" fill="#918E9B"/>
</svg>
