<svg width="23" height="15" viewBox="0 0 23 15" fill="none" xmlns="http://www.w3.org/2000/svg">
<path d="M2.552 14.232C1.8 13.488 1.208 12.536 0.776 11.376C0.344 10.208 0.128 8.94 0.128 7.572C0.128 6.188 0.352 4.904 0.8 3.72C1.248 2.536 1.876 1.56 2.684 0.792H3.56V0.875999C2.704 1.716 2.052 2.72 1.604 3.888C1.164 5.056 0.944 6.284 0.944 7.572C0.944 8.844 1.156 10.048 1.58 11.184C2.004 12.32 2.624 13.308 3.44 14.148V14.232H2.552ZM4.78306 5.592C4.83906 4.864 5.11906 4.292 5.62306 3.876C6.13506 3.452 6.79506 3.24 7.60306 3.24C8.13906 3.24 8.59906 3.336 8.98306 3.528C9.36706 3.72 9.65506 3.984 9.84706 4.32C10.0471 4.648 10.1471 5.02 10.1471 5.436C10.1471 5.94 9.99906 6.376 9.70306 6.744C9.40706 7.112 8.98706 7.34 8.44306 7.428V7.488C9.01106 7.6 9.46306 7.848 9.79906 8.232C10.1351 8.608 10.3031 9.104 10.3031 9.72C10.3031 10.408 10.0711 10.972 9.60706 11.412C9.15106 11.844 8.48706 12.06 7.61506 12.06C6.78306 12.06 6.09906 11.844 5.56306 11.412C5.02706 10.972 4.71906 10.352 4.63906 9.552H5.45506C5.52706 10.088 5.75106 10.524 6.12706 10.86C6.50306 11.188 6.99906 11.352 7.61506 11.352C8.22306 11.352 8.68706 11.192 9.00706 10.872C9.33506 10.552 9.49906 10.144 9.49906 9.648C9.49906 8.432 8.62306 7.824 6.87106 7.824H6.60706V7.116H6.88306C8.51506 7.116 9.33106 6.584 9.33106 5.52C9.33106 5.056 9.17906 4.684 8.87506 4.404C8.57106 4.116 8.13906 3.972 7.57906 3.972C7.03506 3.972 6.58306 4.116 6.22306 4.404C5.87106 4.684 5.66306 5.08 5.59906 5.592H4.78306ZM11.8386 7.62C11.8386 6.244 12.0506 5.176 12.4746 4.416C12.8986 3.656 13.6586 3.276 14.7546 3.276C15.8506 3.276 16.6106 3.656 17.0346 4.416C17.4586 5.176 17.6706 6.244 17.6706 7.62C17.6706 9.02 17.4586 10.104 17.0346 10.872C16.6106 11.64 15.8506 12.024 14.7546 12.024C13.6506 12.024 12.8866 11.64 12.4626 10.872C12.0466 10.104 11.8386 9.02 11.8386 7.62ZM16.8426 7.62C16.8426 6.876 16.7906 6.248 16.6866 5.736C16.5826 5.224 16.3786 4.812 16.0746 4.5C15.7706 4.188 15.3306 4.032 14.7546 4.032C14.1786 4.032 13.7386 4.188 13.4346 4.5C13.1306 4.812 12.9266 5.224 12.8226 5.736C12.7186 6.248 12.6666 6.876 12.6666 7.62C12.6666 8.388 12.7186 9.032 12.8226 9.552C12.9266 10.064 13.1306 10.476 13.4346 10.788C13.7386 11.1 14.1786 11.256 14.7546 11.256C15.3306 11.256 15.7706 11.1 16.0746 10.788C16.3786 10.476 16.5826 10.064 16.6866 9.552C16.7906 9.032 16.8426 8.388 16.8426 7.62ZM19.0531 14.232V14.148C19.8691 13.308 20.4891 12.32 20.9131 11.184C21.3371 10.048 21.5491 8.844 21.5491 7.572C21.5491 6.284 21.3251 5.056 20.8771 3.888C20.4371 2.72 19.7891 1.716 18.9331 0.875999V0.792H19.8091C20.6171 1.56 21.2451 2.536 21.6931 3.72C22.1411 4.904 22.3651 6.188 22.3651 7.572C22.3651 8.94 22.1491 10.208 21.7171 11.376C21.2851 12.536 20.6931 13.488 19.9411 14.232H19.0531Z" fill="#918E9B"/>
</svg>
