<svg width="16" height="15" viewBox="0 0 16 15" fill="none" xmlns="http://www.w3.org/2000/svg">
<path d="M2.552 14.232C1.8 13.488 1.208 12.536 0.776 11.376C0.344 10.208 0.128 8.94 0.128 7.572C0.128 6.188 0.352 4.904 0.8 3.72C1.248 2.536 1.876 1.56 2.684 0.792H3.56V0.875999C2.704 1.716 2.052 2.72 1.604 3.888C1.164 5.056 0.944 6.284 0.944 7.572C0.944 8.844 1.156 10.048 1.58 11.184C2.004 12.32 2.624 13.308 3.44 14.148V14.232H2.552ZM9.76306 5.496C9.58706 4.456 8.98306 3.936 7.95106 3.936C7.16706 3.936 6.57906 4.24 6.18706 4.848C5.79506 5.456 5.61506 6.452 5.64706 7.836C5.80706 7.356 6.11106 6.98 6.55906 6.708C7.01506 6.428 7.53506 6.288 8.11906 6.288C8.95906 6.288 9.62306 6.548 10.1111 7.068C10.6071 7.58 10.8551 8.288 10.8551 9.192C10.8551 9.72 10.7511 10.2 10.5431 10.632C10.3431 11.056 10.0311 11.396 9.60706 11.652C9.19106 11.908 8.67106 12.036 8.04706 12.036C6.85506 12.036 6.03106 11.656 5.57506 10.896C5.12706 10.136 4.90306 9.06 4.90306 7.668C4.90306 4.708 5.91906 3.228 7.95106 3.228C8.71906 3.228 9.32306 3.44 9.76306 3.864C10.2031 4.28 10.4631 4.824 10.5431 5.496H9.76306ZM7.96306 7.008C7.58706 7.008 7.23106 7.084 6.89506 7.236C6.55906 7.388 6.28306 7.62 6.06706 7.932C5.85906 8.236 5.75506 8.612 5.75506 9.06C5.75506 9.708 5.94706 10.248 6.33106 10.68C6.71506 11.112 7.27506 11.328 8.01106 11.328C8.62706 11.328 9.11906 11.14 9.48706 10.764C9.85506 10.388 10.0391 9.876 10.0391 9.228C10.0391 8.532 9.85906 7.988 9.49906 7.596C9.13906 7.204 8.62706 7.008 7.96306 7.008ZM12.1859 14.232V14.148C13.0019 13.308 13.6219 12.32 14.0459 11.184C14.4699 10.048 14.6819 8.844 14.6819 7.572C14.6819 6.284 14.4579 5.056 14.0099 3.888C13.5699 2.72 12.9219 1.716 12.0659 0.875999V0.792H12.9419C13.7499 1.56 14.3779 2.536 14.8259 3.72C15.2739 4.904 15.4979 6.188 15.4979 7.572C15.4979 8.94 15.2819 10.208 14.8499 11.376C14.4179 12.536 13.8259 13.488 13.0739 14.232H12.1859Z" fill="#918E9B"/>
</svg>
