<svg width="17" height="10" viewBox="0 0 17 10" fill="none" xmlns="http://www.w3.org/2000/svg">
<path d="M0.408 6.96V6.324L4.776 0.443999H5.772V6.228H7.056V6.96H5.772V9H4.944V6.96H0.408ZM4.98 1.368L1.38 6.228H4.98V1.368ZM8.46338 9.06C8.28738 9.06 8.13938 9 8.01938 8.88C7.90738 8.76 7.85138 8.612 7.85138 8.436C7.85138 8.26 7.90738 8.116 8.01938 8.004C8.13938 7.884 8.28738 7.824 8.46338 7.824C8.63138 7.824 8.77138 7.884 8.88338 8.004C9.00338 8.116 9.06338 8.26 9.06338 8.436C9.06338 8.612 9.00338 8.76 8.88338 8.88C8.77138 9 8.63138 9.06 8.46338 9.06ZM11.9871 4.536C11.4911 4.376 11.1111 4.124 10.8471 3.78C10.5911 3.436 10.4631 3.02 10.4631 2.532C10.4631 2.1 10.5711 1.716 10.7871 1.38C11.0111 1.036 11.3351 0.768 11.7591 0.576C12.1831 0.375999 12.6911 0.275999 13.2831 0.275999C13.8751 0.275999 14.3831 0.375999 14.8071 0.576C15.2311 0.768 15.5511 1.036 15.7671 1.38C15.9911 1.716 16.1031 2.1 16.1031 2.532C16.1031 3.012 15.9711 3.428 15.7071 3.78C15.4511 4.132 15.0751 4.384 14.5791 4.536C15.1231 4.672 15.5511 4.932 15.8631 5.316C16.1751 5.7 16.3311 6.168 16.3311 6.72C16.3311 7.232 16.2031 7.68 15.9471 8.064C15.6991 8.44 15.3431 8.732 14.8791 8.94C14.4231 9.148 13.8911 9.252 13.2831 9.252C12.6751 9.252 12.1391 9.148 11.6751 8.94C11.2191 8.732 10.8631 8.44 10.6071 8.064C10.3591 7.68 10.2351 7.232 10.2351 6.72C10.2351 6.168 10.3911 5.7 10.7031 5.316C11.0151 4.932 11.4431 4.672 11.9871 4.536ZM15.2871 2.628C15.2871 2.1 15.1071 1.692 14.7471 1.404C14.3871 1.116 13.8991 0.972 13.2831 0.972C12.6671 0.972 12.1791 1.116 11.8191 1.404C11.4591 1.684 11.2791 2.092 11.2791 2.628C11.2791 3.124 11.4631 3.52 11.8311 3.816C12.1991 4.112 12.6831 4.26 13.2831 4.26C13.8831 4.26 14.3671 4.112 14.7351 3.816C15.1031 3.52 15.2871 3.124 15.2871 2.628ZM13.2831 4.908C12.6271 4.908 12.0911 5.056 11.6751 5.352C11.2591 5.648 11.0511 6.096 11.0511 6.696C11.0511 7.272 11.2511 7.724 11.6511 8.052C12.0511 8.38 12.5951 8.544 13.2831 8.544C13.9631 8.544 14.5031 8.38 14.9031 8.052C15.3031 7.716 15.5031 7.264 15.5031 6.696C15.5031 6.104 15.2951 5.66 14.8791 5.364C14.4711 5.06 13.9391 4.908 13.2831 4.908Z" fill="#222222"/>
</svg>
