<svg width="17" height="10" viewBox="0 0 17 10" fill="none" xmlns="http://www.w3.org/2000/svg">
<path d="M6.204 1.116H1.812V4.188C2.012 3.908 2.304 3.68 2.688 3.504C3.072 3.32 3.488 3.228 3.936 3.228C4.592 3.228 5.128 3.364 5.544 3.636C5.96 3.9 6.26 4.248 6.444 4.68C6.628 5.104 6.72 5.56 6.72 6.048C6.72 6.608 6.612 7.116 6.396 7.572C6.188 8.02 5.864 8.376 5.424 8.64C4.992 8.904 4.452 9.036 3.804 9.036C2.98 9.036 2.312 8.824 1.8 8.4C1.288 7.968 0.976 7.388 0.864 6.66H1.692C1.796 7.188 2.036 7.596 2.412 7.884C2.788 8.172 3.252 8.316 3.804 8.316C4.5 8.316 5.024 8.112 5.376 7.704C5.736 7.288 5.916 6.74 5.916 6.06C5.916 5.396 5.736 4.88 5.376 4.512C5.016 4.136 4.5 3.948 3.828 3.948C3.364 3.948 2.956 4.056 2.604 4.272C2.252 4.488 1.992 4.78 1.824 5.148H1.032V0.383999H6.204V1.116ZM8.51025 9.06C8.33425 9.06 8.18625 9 8.06625 8.88C7.95425 8.76 7.89825 8.612 7.89825 8.436C7.89825 8.26 7.95425 8.116 8.06625 8.004C8.18625 7.884 8.33425 7.824 8.51025 7.824C8.67825 7.824 8.81825 7.884 8.93025 8.004C9.05025 8.116 9.11025 8.26 9.11025 8.436C9.11025 8.612 9.05025 8.76 8.93025 8.88C8.81825 9 8.67825 9.06 8.51025 9.06ZM10.3659 4.62C10.3659 3.244 10.5779 2.176 11.0019 1.416C11.4259 0.655999 12.1859 0.275999 13.2819 0.275999C14.3779 0.275999 15.1379 0.655999 15.5619 1.416C15.9859 2.176 16.1979 3.244 16.1979 4.62C16.1979 6.02 15.9859 7.104 15.5619 7.872C15.1379 8.64 14.3779 9.024 13.2819 9.024C12.1779 9.024 11.4139 8.64 10.9899 7.872C10.5739 7.104 10.3659 6.02 10.3659 4.62ZM15.3699 4.62C15.3699 3.876 15.3179 3.248 15.2139 2.736C15.1099 2.224 14.9059 1.812 14.6019 1.5C14.2979 1.188 13.8579 1.032 13.2819 1.032C12.7059 1.032 12.2659 1.188 11.9619 1.5C11.6579 1.812 11.4539 2.224 11.3499 2.736C11.2459 3.248 11.1939 3.876 11.1939 4.62C11.1939 5.388 11.2459 6.032 11.3499 6.552C11.4539 7.064 11.6579 7.476 11.9619 7.788C12.2659 8.1 12.7059 8.256 13.2819 8.256C13.8579 8.256 14.2979 8.1 14.6019 7.788C14.9059 7.476 15.1099 7.064 15.2139 6.552C15.3179 6.032 15.3699 5.388 15.3699 4.62Z" fill="#222222"/>
</svg>
