<svg width="23" height="10" viewBox="0 0 23 10" fill="none" xmlns="http://www.w3.org/2000/svg">
<path d="M1.764 0.611999V5.892C1.764 6.724 1.96 7.34 2.352 7.74C2.752 8.14 3.296 8.34 3.984 8.34C4.672 8.34 5.208 8.144 5.592 7.752C5.984 7.352 6.18 6.732 6.18 5.892V0.611999H7.02V5.88C7.02 6.944 6.736 7.744 6.168 8.28C5.608 8.816 4.876 9.084 3.972 9.084C3.068 9.084 2.332 8.816 1.764 8.28C1.204 7.744 0.924 6.944 0.924 5.88V0.611999H1.764ZM11.4376 9.084C10.8856 9.084 10.3976 8.988 9.97359 8.796C9.55759 8.604 9.22959 8.336 8.98959 7.992C8.74959 7.648 8.62159 7.264 8.60559 6.84H9.49359C9.53359 7.248 9.71359 7.608 10.0336 7.92C10.3536 8.224 10.8216 8.376 11.4376 8.376C12.0056 8.376 12.4536 8.232 12.7816 7.944C13.1176 7.648 13.2856 7.276 13.2856 6.828C13.2856 6.468 13.1936 6.18 13.0096 5.964C12.8256 5.74 12.5976 5.576 12.3256 5.472C12.0536 5.36 11.6776 5.24 11.1976 5.112C10.6376 4.96 10.1936 4.812 9.86559 4.668C9.53759 4.524 9.25759 4.3 9.02559 3.996C8.79359 3.692 8.67759 3.28 8.67759 2.76C8.67759 2.328 8.78959 1.944 9.01359 1.608C9.23759 1.264 9.55359 0.996 9.96159 0.804C10.3696 0.612 10.8376 0.516 11.3656 0.516C12.1416 0.516 12.7656 0.708 13.2376 1.092C13.7176 1.468 13.9936 1.956 14.0656 2.556H13.1536C13.0976 2.212 12.9096 1.908 12.5896 1.644C12.2696 1.372 11.8376 1.236 11.2936 1.236C10.7896 1.236 10.3696 1.372 10.0336 1.644C9.69759 1.908 9.52959 2.272 9.52959 2.736C9.52959 3.088 9.62159 3.372 9.80559 3.588C9.98959 3.804 10.2176 3.968 10.4896 4.08C10.7696 4.192 11.1456 4.312 11.6176 4.44C12.1616 4.592 12.6016 4.744 12.9376 4.896C13.2736 5.04 13.5576 5.264 13.7896 5.568C14.0216 5.872 14.1376 6.28 14.1376 6.792C14.1376 7.184 14.0336 7.556 13.8256 7.908C13.6176 8.26 13.3096 8.544 12.9016 8.76C12.4936 8.976 12.0056 9.084 11.4376 9.084ZM20.6208 7.008H16.8048L16.0728 9H15.1848L18.2448 0.719999H19.1928L22.2408 9H21.3528L20.6208 7.008ZM20.3688 6.312L18.7128 1.776L17.0568 6.312H20.3688Z" fill="#918E9B"/>
</svg>
